<?xml version="1.0" encoding="iso-8859-1"?>
<!-- Generator: Adobe Illustrator 19.0.0, SVG Export Plug-In . SVG Version: 6.00 Build 0)  -->
<svg version="1.1" id="Capa_1" xmlns="http://www.w3.org/2000/svg" xmlns:xlink="http://www.w3.org/1999/xlink" x="0px" y="0px"
	 viewBox="0 0 512 512" style="enable-background:new 0 0 512 512;" xml:space="preserve">
<g>
	<g>
		<g>
			<path d="M479.245,218.858C471.065,95.646,369.702,0,245.333,0C115.938,0,10.667,105.271,10.667,234.667
				s105.271,234.667,234.667,234.667c30.693,0,61.042-6.172,89.208-17.728c-2.48,5.404-3.875,11.404-3.875,17.728
				c0,11.417,4.448,22.125,12.521,30.188c8.052,8.042,18.75,12.479,30.125,12.479c0.01,0,0.031,0,0.052,0l53.365-0.042
				c41.135-0.021,74.604-33.521,74.604-74.667V256C501.333,239.975,492.348,226.151,479.245,218.858z M330.667,405.333
				c0,7.94,2.376,15.249,6.169,21.622C308.367,440.503,277.113,448,245.333,448C127.698,448,32,352.292,32,234.667
				S127.698,21.333,245.333,21.333c110.75,0,201.385,83.428,212.052,192.129C434.458,214.158,416,232.918,416,256v42.667h-24.344
				c0.837-2.751,2.057-5.417,2.719-8.188c0.76-3.188,0.021-6.521-2-9.083c-2.031-2.563-5.115-4.063-8.375-4.063H106.667
				c-3.26,0-6.344,1.5-8.365,4.042c-2.021,2.563-2.771,5.896-2.021,9.083c15.729,66.563,78.406,114.875,149.052,114.875
				c34.977,0,69.786-12.564,97.352-34.668c0.837,0.875,1.552,1.866,2.461,2.668C336.271,381.167,330.667,392.604,330.667,405.333z
				 M332.063,351.729c-2.591,2.195-5.242,4.297-7.987,6.285c-21.837-17.527-52.587-21.911-78.742-9.223
				c-26.159-12.727-57.02-8.268-78.891,9.382c-20.594-14.939-36.813-35.418-45.495-59.507h248.729
				c-0.047,0.13-0.105,0.255-0.152,0.385c-21.724,1.962-38.858,20.064-38.858,42.281
				C330.667,344.935,331.219,348.387,332.063,351.729z M304.102,370.078C285.788,379.059,265.592,384,245.333,384
				c-20.977,0-41.128-4.93-59.089-13.714c15.954-9.402,36.301-10.315,53.724-0.203c3.313,1.958,7.417,1.958,10.729,0
				C268.004,360.038,288.212,360.855,304.102,370.078z M480,437.292c0,29.396-23.906,53.313-53.292,53.333l-53.365,0.042
				c0,0-0.021,0-0.031,0c-5.677,0-11.031-2.208-15.052-6.229c-4.042-4.042-6.26-9.396-6.26-15.104
				c0-11.771,9.573-21.333,21.333-21.333H384c5.896,0,10.667-4.771,10.667-10.667c0-5.896-4.771-10.667-10.667-10.667h-10.667
				c-11.76,0-21.333-9.563-21.333-21.333c0-11.771,9.573-21.333,21.333-21.333H384c5.896,0,10.667-4.771,10.667-10.667
				c0-5.896-4.771-10.667-10.667-10.667h-10.667c-11.76,0-21.333-9.563-21.333-21.333c0-11.771,9.573-21.333,21.333-21.333H448
				c5.896,0,10.667-4.771,10.667-10.667c0-5.896-4.771-10.667-10.667-10.667h-10.667V256c0-11.771,9.573-21.333,21.333-21.333
				S480,244.229,480,256V437.292z"/>
			<circle cx="330.667" cy="170.667" r="21.333"/>
			<circle cx="160" cy="170.667" r="21.333"/>
		</g>
	</g>
</g>
<g>
</g>
<g>
</g>
<g>
</g>
<g>
</g>
<g>
</g>
<g>
</g>
<g>
</g>
<g>
</g>
<g>
</g>
<g>
</g>
<g>
</g>
<g>
</g>
<g>
</g>
<g>
</g>
<g>
</g>
</svg>
